<svg width="580" height="400" xmlns="http://www.w3.org/2000/svg">
 <!-- Created with SVG Editor - http://github.com/mzalive/SVG Editor/ -->
 <g>
  <title>background</title>
  <rect fill="#fff" id="canvas_background" height="402" width="582" y="-1" x="-1"/>
 </g>
 <g>
  <title>Layer 1</title>
  <rect id="svg_1" height="399" width="579" y="0.453125" x="0.5" fill-opacity="null" stroke-opacity="null" stroke-width="1.5" stroke="#000" fill="#fff"/>
  <rect id="svg_2" height="379" width="559" y="9.453125" x="11.5" fill-opacity="null" stroke-opacity="null" stroke-width="1.5" stroke="#000" fill="#fff"/>
  <path stroke="#000" id="svg_3" d="m566.187991,233.277077l-27.737385,-39.944189l0,-95.399037l-23.778783,0l0,61.15557l-55.483828,-79.901422l-106.999996,154.089078l25.472739,-0.874024l0,155.784945l161.922191,0l0,-154.910921l26.605062,0zm-106.999996,132.629839l-52.838721,0l0,-91.315911l52.838721,0l0,91.315911zm51.334996,-39.135391l-34.721553,0l0,-52.728416l34.721553,0l0,52.728416z" fill-opacity="null" stroke-opacity="null" stroke-width="1.5" fill="#fff"/>
  <path id="svg_7" d="m35.586282,196.483268c-0.934348,0 -1.414602,-1.116045 -1.414602,-2.454383c0,-1.115786 0.240091,-2.199088 0.934348,-2.199088c0.480254,0 1.203215,1.083302 1.443305,2.199088c0.480254,1.624563 0,2.454383 -0.963051,2.454383zm159.716972,63.680138c2.137635,0 2.617816,0.286225 1.414602,2.198828c-0.694258,1.338338 -2.137563,2.454124 -2.83182,2.454124c-0.722888,0 -1.443306,-1.115786 -1.443306,-2.454124c0,-1.371169 0.963124,-2.198828 2.860524,-2.198828zm-149.240546,-77.895154c-2.137563,-0.541521 -2.377726,-3.283685 0,-4.111604c1.203142,-0.25495 1.897472,0.541435 1.897472,2.199087c0,1.370996 -0.69433,2.167726 -1.897472,1.912517zm-26.645195,86.627139c2.860523,-0.796818 2.860523,-1.369527 1.897472,-3.250942c-0.720418,-1.369526 -0.960508,-3.027006 -0.480254,-3.568613c0.24009,-0.829388 1.443305,0 2.137562,1.624736c0.963052,2.199087 1.683396,2.48704 3.580868,1.115786c1.177128,-0.827833 2.137563,-1.370823 2.137563,-0.541435c0,0.541435 0.722961,0 1.657309,-1.115786c1.443378,-1.624736 1.683468,-5.194819 0.240163,-7.107508c-1.174511,-1.624736 -7.135649,-1.083129 -8.792957,0.827833c-0.960508,1.371254 -1.683469,1.084856 -2.617817,-1.369268c-1.443305,-4.080588 -1.443305,-4.65347 1.897399,-4.908421c2.860524,0 2.860524,0 0.480254,-1.657479c-1.200598,-0.796817 -2.377653,-2.454124 -2.377653,-3.537426c0,-2.74199 3.314617,-4.366727 4.757923,-2.454037c0.480254,0.796644 1.414674,1.624736 2.377726,1.624736c1.897472,0 10.956607,-9.273938 10.956607,-11.186628c0,-0.829301 0.936964,-1.370736 1.897472,-0.829301c1.177055,0.287867 3.31469,-0.541435 5.480956,-1.912689c3.07191,-2.198915 3.07191,-2.454124 1.414602,-6.022738c-1.174511,-2.454124 -2.617817,-3.283685 -5.958594,-3.283685c-3.794871,0 -4.757923,0.541694 -5.932434,3.825379c-0.48287,2.198828 -1.926103,3.82365 -2.860523,3.82365c-1.657309,0 -2.137563,-2.452655 -0.480254,-3.82365c0.720344,-0.541694 1.200598,-2.454124 1.200598,-4.366814c0,-2.995904 -0.480254,-3.537425 -3.580868,-2.740521c-3.100614,0.541434 -3.100614,0.286225 -2.377726,-3.825552c0.480254,-2.454037 1.174512,-4.652952 1.657382,-4.908161c0.480254,-0.286226 0.960435,-2.740522 0.960435,-5.194646c0,-4.90868 1.417218,-5.736513 4.037651,-2.199088c1.200526,1.912603 1.923559,2.199088 2.377653,0.541435c0.480254,-1.083129 2.16365,-1.338338 4.784083,-0.796903c3.55478,1.083301 3.794871,0.796903 3.314617,-2.454124c-0.240091,-1.91243 -0.482797,-4.111518 -0.722888,-4.652952c0,-0.828092 -1.174511,-1.91269 -2.591729,-2.740782c-2.860524,-1.370736 -3.580868,-4.652952 -0.963052,-4.652952c0.722961,0 1.417146,-0.541694 1.417146,-1.626464c0,-0.828092 1.443378,-1.369526 3.340777,-1.115958c2.620432,0.287866 4.035034,-0.796472 7.615902,-6.532725c2.620433,-4.111777 4.517832,-6.310691 4.757996,-5.194906c0.24009,1.369527 1.443305,2.166171 2.62036,2.166171c1.897472,0 2.137635,-0.796644 1.443378,-4.365258c-0.242707,-2.454297 -1.443378,-5.449855 -2.166266,-6.82111c-2.137636,-3.028216 -2.137636,-6.565641 0,-5.482772c1.683396,1.084857 6.921572,-1.910961 6.921572,-3.823564c0,-0.829388 0.696874,-1.370995 1.657309,-1.370995c0.963124,0 1.417218,1.657393 1.417218,3.825292c0,2.740522 0.480254,3.823823 1.683469,3.02692c0.934348,-0.572796 1.657381,-2.199087 1.657381,-3.28213c0,-3.283857 7.61583,-9.020197 9.513229,-7.393992c0.723033,0.541867 1.443305,0 1.686157,-1.91243c0.694185,-3.825292 4.995398,-6.82111 6.892797,-4.908421c0.963124,0.796644 1.897545,0.541694 2.140251,-0.286225c0.480182,-1.08477 2.377654,-1.91269 4.515216,-2.168072c2.137563,-0.286225 4.998086,-1.370995 6.201301,-2.486781c4.515216,-3.537425 9.033121,-3.282216 10.93052,0.543335c1.203215,2.74035 1.683396,2.74035 1.683396,0.82766c0,-2.454296 0.937037,-2.740522 6.655467,-1.91243c9.059208,1.08477 10.476426,1.08477 13.817203,-0.286484c2.137563,-0.796817 2.860451,-0.541608 2.860451,1.65722c0,1.371255 0.69433,2.454384 1.657381,2.454384c0.720345,0 1.414602,-0.796904 1.414602,-1.626292c0,-2.198828 3.823648,-3.282129 7.164352,-2.198828c2.59173,1.08477 2.83182,1.370736 2.137563,8.733454c-0.240091,4.398002 0,7.39382 0.454167,7.39382c0.480181,0 0.963051,-1.91269 0.963051,-4.653212c0,-4.622022 2.617816,-6.533157 3.580868,-2.740608c0.240163,1.369613 0.934348,0.827919 1.414602,-1.338252c1.203287,-5.737981 3.823647,-2.74225 3.100614,3.537426c-0.720272,5.194646 -0.720272,5.194646 1.41729,3.281956c1.203142,-0.827919 2.13749,-2.995558 2.13749,-4.365258c0,-1.371082 0.723034,-2.997286 1.683542,-3.570169c1.897326,-1.082869 4.037578,3.027179 3.340704,6.024207c-0.24009,1.369786 -0.24009,2.454297 0.454094,2.454297c0.48287,0 0.963124,-0.796645 0.963124,-1.370996c0,-0.796817 1.177055,-1.083301 2.62036,-0.541434c3.098071,0.827919 3.552165,3.026747 0.934421,4.365085c-0.694257,0.574351 -1.417218,1.912689 -1.417218,3.028648c0,1.912689 0.482797,1.912689 3.100614,0c4.275125,-3.28213 6.172525,-3.028648 6.895558,0.541435c0.480181,1.912689 1.417145,2.742077 2.377653,1.912689c0.963052,-0.286398 3.100614,0.829388 4.757995,2.740522c1.443306,1.626205 3.580868,2.995818 4.54392,2.995818c1.417218,0 1.417218,1.371168 0.934348,5.196287c-0.480182,4.111777 -0.480182,4.653211 0.963124,2.995991c1.897399,-2.709593 2.617816,-2.454556 3.31469,1.369267c0.24009,1.91269 1.923486,3.283685 3.820958,4.111604c2.137563,0.543335 3.31469,1.912603 3.31469,3.538894c0,1.657394 0.720272,3.568614 1.443306,4.653384c1.897472,1.91243 1.414602,7.64877 -0.723034,9.561373c-0.720272,0.572883 -1.657236,0.286485 -1.897399,-0.541435c-0.480181,-0.82956 -2.137563,-0.82956 -5.238249,0c-4.998086,1.910962 -5.932434,2.454124 -4.757923,4.939437c0.722961,1.624736 9.035664,1.083301 13.57704,-0.829388c1.417218,-0.828005 1.897472,0 1.897472,3.825379c0,2.740349 -0.480254,4.90842 -1.200599,4.90842c-0.48287,0 -0.936964,0.827833 -0.936964,2.198828c0,3.283512 1.177128,2.995559 4.277742,-0.828091c1.654692,-2.198829 2.617744,-2.741991 3.794871,-1.370737c1.200599,1.370737 1.443305,1.370737 1.443305,-0.828092c0,-1.339979 -0.48287,-2.454124 -1.203142,-2.454124c-0.454166,0 -0.937036,-1.08477 -0.937036,-2.168071c0,-1.370823 0.696873,-2.454124 1.657308,-2.454124c0.722961,0 1.683469,0.541435 1.683469,1.338338c0,0.829733 0.936964,1.912603 2.140179,2.199087c1.654765,0.829561 2.137562,1.91269 1.897399,5.194819c-0.482797,6.279243 0.480326,8.192106 4.035034,7.108977c1.683469,-0.543336 2.617744,0 1.897472,1.083129c-0.214003,0.541434 0,1.912689 0.480254,2.485139c1.926103,1.626378 1.203142,5.450288 -0.93442,5.450288c-2.62036,0 -3.340778,1.370736 -1.923487,3.825119c0.960435,1.370995 1.683396,1.624736 2.617744,0.541608c2.166266,-2.740522 2.620433,-0.541608 2.860523,10.391192c0,5.480871 0.480254,9.847857 0.960508,9.847857c1.177055,0 0.722961,6.024207 -0.960508,8.478331c-0.936964,1.369527 -0.936964,2.707779 -0.24009,3.823564c1.683396,2.454383 0,9.561892 -2.140252,9.561892c-1.897326,0 -5.478267,5.194646 -5.478267,7.648942c0,2.99746 -3.07191,0 -3.794871,-3.282216c-0.720345,-2.995731 -0.720345,-2.995731 -1.203215,-0.829387c-0.454094,2.486867 2.140179,10.13581 4.303901,12.30345c1.417146,1.657652 -1.203214,4.398001 -3.100686,3.282215c-0.963124,-0.541434 -1.417218,-2.16617 -1.417218,-3.82365c0,-4.652952 -5.958594,-16.382656 -10.476426,-20.780485c-2.403741,-2.168071 -4.541376,-4.622195 -4.541376,-5.450028c0,-1.65748 -7.618446,-6.82111 -11.893571,-8.478504c-2.380342,-0.829387 -3.100687,-0.541521 -3.100687,1.657394c0,1.624736 -0.454094,2.166171 -1.417218,1.624736c-2.137562,-1.083301 -3.100614,1.371254 -1.203142,3.825379c2.62036,2.995731 2.166266,6.565641 -0.694257,5.194645c-1.923559,-0.827919 -2.163723,-0.541693 -1.443305,4.111691c0.24009,2.709333 0.72296,6.279243 0.72296,7.903979c0,1.65748 0.480182,2.740781 0.960436,2.740781c0.696946,0 0.936964,-0.541694 0.454166,-1.369526c-0.24009,-0.829561 0.24278,-1.626292 1.203142,-1.626292c0.723033,0 1.417218,1.084598 1.417218,2.167726c0,1.115959 -0.936891,2.198828 -2.62036,1.912862c-1.414602,0 -2.617816,-0.796903 -2.617816,-1.338511c0,-2.48704 -6.415304,-19.41113 -8.312704,-21.896443c-2.137635,-2.709592 -0.720417,-3.537425 -17.612147,9.306336c-2.617744,1.91269 -5.478267,6.024207 -6.921572,9.020198c-1.177128,2.995558 -3.074527,6.024206 -4.035035,6.565641c-0.963051,0.541694 -4.517832,4.908421 -7.618519,9.561632c-13.336949,20.492532 -11.170683,22.946828 -10.236262,64.796096c4.037578,31.711644 4.037578,31.711644 4.037578,31.711644c-9.515918,0 -9.515918,0 -9.515918,0c-7.855993,0 -7.855993,0 -7.855993,0c0.720344,-29.259161 0.720344,-29.259161 0.720344,-29.259161c0.480181,-2.452483 0.722961,-7.393561 0.963124,-10.134342c0.240091,-1.626205 -6.681554,-8.733713 -6.441391,-10.358276c0,-1.370995 7.161736,2.454383 7.161736,1.083129c1.177054,-19.951097 0,-35.82342 -3.100687,-44.270649c-0.720344,-5.194905 -6.681482,-21.894802 -7.61583,-21.894802c-0.240163,0 -1.923559,-1.626204 -3.580868,-3.538894c-2.860596,-3.568441 -4.035034,-3.823823 -19.992416,-4.908421c-17.131821,-1.114317 -17.131821,-1.114317 -17.131821,-1.114317c-4.061122,3.823824 -4.061122,3.823824 -4.061122,3.823824c-2.377653,2.486781 -4.757922,4.111604 -5.452252,4.111604c-1.443306,0 -7.404443,5.737722 -9.996172,9.019678c-0.240091,0 -0.480182,-0.285966 -0.480182,-0.541434c-0.240163,0 -0.240163,0 -0.240163,-0.286398c-0.240091,-0.796645 -0.482797,-1.626205 -0.963051,-2.454124c1.443305,-1.370996 2.62036,-2.200383 3.100614,-1.91243c0.720344,0.541434 1.417218,0 1.417218,-1.371255c0,-1.369526 -1.417218,-1.912603 -5.212089,-1.369526c-4.543992,0.828091 -5.721047,1.114317 -6.441392,4.365344c-1.177127,1.657393 -1.417218,4.11169 -0.720344,6.024379c-0.24278,2.454124 -0.24278,4.111518 0,4.111518c0.24009,0 0.480181,-0.541435 1.200598,-1.115786c0,0.286484 0.240091,0.574351 0.482798,0.829388c-2.38027,0.827919 -3.583484,3.282216 -3.340778,5.73634c-1.203142,1.115786 -2.380269,1.657393 -3.823502,2.485312c0,0 0,-0.286225 -0.214076,-0.286225c0.936964,-2.454124 1.417218,-5.194905 1.657309,-9.306423c0.48287,-4.622195 0.240091,-7.648942 -0.480181,-7.648942c-0.480254,0 -0.963052,1.115785 -0.963052,2.740262c0.240018,1.371255 -0.214076,2.740782 -1.174584,2.995991c-0.72296,0.286225 -1.203142,-0.255209 -1.203142,-1.624736c0,-3.283685 -0.93442,-3.283685 -3.074599,-0.287867c-0.960435,1.115786 -2.857907,2.454297 -4.515216,3.028648c-2.166266,0.796644 -2.860523,0.254951 -3.823575,-2.740781c-0.720344,-2.454124 -1.200598,-5.196287 -0.720344,-6.279416c0.24009,-1.370995 0.24009,-2.485313 -0.694258,-2.485313c-2.620432,0 -0.72296,-4.366986 2.377654,-5.196373zm20.472598,-62.85075c-1.443306,-0.286226 -2.620433,-1.083129 -3.100614,-2.198915c-0.240164,-1.626205 -0.480254,-1.626205 -0.480254,0c0,1.115786 -0.963052,1.912689 -1.897472,2.198915c-1.683396,0 -1.683396,0.286398 0.240163,1.371254c1.174439,0.541435 2.377653,1.369268 2.617744,1.369268c0.214003,0 1.417218,-0.827833 2.620433,-1.369268c2.137562,-1.371254 2.137562,-1.371254 0,-1.371254zm188.73982,44.015439c0.454166,0.541693 0.93442,-0.287867 0.93442,-1.657394c0,-1.084597 -0.480254,-2.167899 -0.93442,-2.167899c-0.722888,0 -1.203142,0.541608 -1.203142,1.338339c0,0.82956 0.480254,1.945346 1.203142,2.486954zm-1.683396,2.454296c-0.240091,-0.82956 -1.417218,-1.912603 -2.38027,-1.912603c-0.694257,0 -1.174511,1.083043 -0.694257,1.912603c0.214003,0.827919 1.177055,1.369613 2.137563,1.369613c0.936964,0 1.177054,-0.541694 0.936964,-1.369613zm-2.137563,12.301982c0.720345,0 1.683396,-0.286226 1.683396,-0.541435c0,-0.574351 -0.963051,-1.115786 -1.683396,-1.65748c-0.936964,-0.541607 -1.657381,-0.255209 -1.657381,0.541694c0,0.829388 0.720417,1.657221 1.657381,1.657221zm1.897472,-25.975131c0.960435,-0.541867 1.443233,-1.371168 1.200599,-2.168072c-0.720418,-1.943618 -4.755452,-1.943618 -4.755452,0c0,2.168072 1.414674,2.995991 3.554853,2.168072zm-13.070698,-20.494432c-1.203215,0.82956 -1.92356,2.454296 -1.683542,3.283684c1.203215,2.16643 2.620506,1.624736 3.821032,-1.912689c1.177127,-3.283685 0.696873,-3.825119 -2.13749,-1.370995zm-4.543992,42.102836c6.201228,7.362458 6.441391,7.648942 6.441391,5.194818c0,-1.369526 -0.480254,-2.485312 -1.203215,-2.485312c-0.694184,0 -1.897399,-1.371254 -2.617744,-2.995731c-0.69433,-1.626465 -2.137562,-3.283944 -3.31469,-3.283944c-2.16365,0 -2.16365,0.287953 0.694258,3.570169zm-4.995543,-12.876505c1.440762,0 2.137635,-0.541435 1.200671,-0.796731c-0.720344,-0.541608 -1.897472,-0.541608 -2.617816,0c-0.723034,0.255296 0,0.796731 1.417145,0.796731zm-6.895485,-37.161758c0.720344,0.828091 2.857907,1.91122 4.755306,2.454383c3.34085,0.827832 3.580941,0.827832 1.683469,-1.370996c-2.16365,-2.709592 -8.096084,-3.537425 -6.438775,-1.083387zm-14.514077,-45.353518c-0.720344,0.796644 -0.960435,2.454124 -0.720344,3.537166c0.480254,2.199087 1.897472,0.286484 1.897472,-2.995732c0,-1.657479 -0.240164,-1.912689 -1.177128,-0.541434zm7.135649,59.026926c1.897472,1.369354 2.620432,1.369354 3.583556,-0.543163c1.8974,-2.995904 0.694185,-4.365258 -2.860596,-2.454037c-2.860523,1.339807 -2.860523,1.339807 -0.72296,2.9972zm-4.755307,-13.673408c3.580868,-2.995473 3.580868,-2.995473 0.720345,-2.995473c-1.923559,0 -3.340777,1.08287 -4.061122,2.995473c-0.454167,1.91122 -0.936964,2.99599 -0.696873,2.99599c0,0 1.897472,-1.626377 4.03765,-2.99599zm-5.238249,44.301923c1.654693,2.99599 4.515289,2.99599 3.580868,-0.286398c-0.240091,-1.084598 -0.482797,-2.454124 -0.482797,-2.742077c0,-0.25521 -0.960508,-0.25521 -2.137563,0.287953c-1.923559,0.541607 -1.923559,1.369526 -0.960508,2.740522zm-7.378355,-11.219026c1.897399,2.995905 2.860523,3.28213 4.998086,1.083302c1.417218,-1.369527 1.417218,-1.369527 0,-1.624736c-0.720345,0 -2.617817,-0.287953 -4.275126,-0.829561c-2.380269,-1.083129 -2.380269,-1.083129 -0.72296,1.370995zm-0.240091,-29.800682c1.203142,0 2.62036,-4.366726 1.897472,-5.736253c-0.934421,-1.370995 -2.85798,0.827833 -2.85798,3.282129c0,1.371082 0.480254,2.454124 0.960508,2.454124zm-11.650937,18.581571c-1.443306,1.115785 -1.203142,1.371254 0.69433,1.371254c1.203142,0 2.617744,-0.543335 3.100614,-1.371254c0.720272,-2.16764 -1.657382,-2.16764 -3.794944,0zm0.240163,24.062873c0.214003,0.287953 0.934348,-0.286398 1.657309,-1.624736c0.720272,-1.115786 2.85798,-2.486781 4.515216,-3.028475c2.137562,-0.828092 3.100686,-2.166344 3.100686,-4.11169c0,-4.620295 -3.340777,-3.251028 -6.89563,2.742163c-1.443233,3.027006 -2.617744,5.481303 -2.377581,6.022738zm-2.62036,-12.588552c2.13749,-2.995559 2.13749,-3.538894 0.454021,-4.366813c-1.897399,-1.083302 -3.312001,1.371254 -3.312001,5.73634c-0.242707,3.283684 -0.242707,3.283684 2.85798,-1.369527zm-3.821031,-32.25472c0.24009,2.198828 0.720344,1.912603 2.13749,-2.167898c1.683541,-4.365345 1.683541,-4.939696 0.240163,-4.939696c-0.934348,0 -1.897472,0.828092 -2.137563,2.199174c-0.480254,1.083042 -0.480254,3.570082 -0.24009,4.90842zm-1.177128,-22.40548c0,1.114317 0.454094,3.823824 0.936964,5.73634c0.720345,3.825292 0.720345,3.825292 1.443306,0.541608c0.934348,-3.281957 0,-8.190378 -1.443306,-8.190378c-0.696873,0 -0.936964,0.82766 -0.936964,1.91243zm-16.67511,9.01847c-1.177055,1.912689 -1.177055,3.825378 -0.242707,9.561632c0.48287,4.111604 1.686085,8.223294 2.38027,9.020197c1.203214,1.370996 1.443305,0 1.683396,-8.477035c0,-10.358535 -1.203142,-13.64196 -3.820959,-10.104794zm2.137563,28.972763c0.240163,0.541694 0.720344,-0.541608 0.480254,-2.167813c0,-1.65748 -0.240091,-1.912689 -0.720345,-0.827919c-0.214076,1.083129 -0.214076,2.454124 0.240091,2.995732zm8.578954,-25.689079c-0.240091,0.541694 -0.240091,4.366986 0.480254,8.477035c0.72296,7.108977 0.936964,7.395202 1.177127,2.200383c0.240091,-8.478503 -0.240163,-12.59002 -1.657381,-10.677418zm-8.0987,77.098337c1.443305,-3.283684 3.821031,-8.764988 5.47834,-12.048413c1.897399,-3.537685 3.100614,-8.190637 3.580868,-12.843848c0.696873,-7.362718 0.696873,-7.362718 0.696873,-7.362718c-2.860523,4.080502 -2.860523,4.080502 -2.860523,4.080502c-1.417218,2.199087 -2.377726,4.653211 -2.377726,5.481303c0,2.167726 -4.517832,15.840876 -5.93505,18.295172c-0.720345,1.369268 -1.92356,4.398002 -2.137563,6.565642c-1.203215,6.27812 0.936964,5.194819 3.554781,-2.16764zm-16.89173,28.143202c0.72296,5.449856 0.72296,5.449856 3.100686,-6.279502c1.417218,-6.310778 3.554781,-16.413672 4.998086,-22.69326c1.8974,-7.935428 2.62036,-14.501069 2.62036,-23.776217c0,-12.047203 -0.242706,-12.302413 -2.140106,-10.931158c-4.301285,3.537339 -6.681554,13.385196 -7.642062,32.508201c-0.454094,9.849758 -0.936964,19.697615 -1.417146,21.865514c-0.240163,2.198914 0,6.310604 0.480182,9.306422zm0.48287,-69.959813c0.934348,2.709507 1.897472,4.908421 1.897472,4.908421c0.24009,0 1.414529,-1.65748 2.377653,-3.825119c1.203142,-1.911134 3.100614,-4.110049 3.821031,-4.906952c2.834364,-2.486781 3.554708,-10.135724 1.177055,-15.330543c-1.897472,-4.653211 -7.135649,-9.849585 -8.098773,-8.192105c-0.480181,0.541607 -1.174438,5.737981 -1.657308,11.760719c-0.960436,9.019938 -0.960436,11.761929 0.48287,15.585579zm-1.443306,-62.596836c0.480254,0.543163 0.960436,0.25521 0.960436,-0.572623c0,-1.08477 -0.480182,-2.168072 -0.960436,-2.709593c-0.72296,-0.574265 -1.177127,-0.286398 -1.177127,0.796904c0,0.827919 0.454167,1.912689 1.177127,2.485312zm-77.106308,73.496807c3.314617,0.287866 3.314617,0.287866 3.314617,0.287866c3.340777,0 6.681555,-3.538894 6.681555,-6.565641c0,-1.912689 -0.240091,-1.912689 -9.996172,6.277775zm1.417218,-7.64903c0,0.82982 0.480254,1.65748 1.203214,1.65748c1.174512,0 4.515216,-4.908421 3.794872,-5.736253c-0.722961,-1.115786 -4.998086,2.454037 -4.998086,4.078773zm2.62036,-18.83652c3.58094,5.451324 5.238249,5.992932 7.135648,2.454037c1.92356,-3.281956 0.240164,-5.481043 -5.480883,-6.277947c-4.755379,-0.829561 -4.755379,-0.829561 -1.654765,3.82391zm-2.62036,-15.329161c0,0.572624 1.683396,1.910962 3.580868,3.026748c8.79303,5.194905 10.476426,5.194905 10.236262,0.255468c0,-2.99599 -3.580868,-9.561804 -4.998086,-9.561804c-1.683396,0 -8.819044,5.194818 -8.819044,6.279588zm12.856695,38.819152c2.617817,0 2.857907,-0.828092 0.720345,-2.16643c-0.963052,-0.287867 -1.897472,0 -2.137563,0.796903c-0.48287,0.82766 0.240091,1.369527 1.417218,1.369527zm1.897472,-64.221832c-1.657381,-1.371168 -3.79756,-1.912603 -4.757995,-1.371168c-1.657309,1.08477 -1.417218,1.371168 0.960435,2.198828c1.177127,0.543336 3.583557,1.084857 4.757995,1.340066c1.417218,0 1.417218,-0.543162 -0.960435,-2.167726zm-0.214003,9.847857c1.414529,0 1.657308,-0.286398 0.694257,-1.114317c-0.694257,-0.255036 -1.657381,-0.255036 -2.137635,0.286485c-0.240091,0.541434 0.480254,1.083301 1.443378,0.827832zm1.414529,6.279676c-3.340705,0 -3.340705,0.25495 -1.414529,2.454037c2.377653,2.454124 3.07191,2.74035 4.035034,1.083129c1.657236,-2.16643 0.480182,-3.537166 -2.620505,-3.537166zm4.758068,-30.883984c-0.963124,-1.370995 -1.203215,1.083302 -0.720417,4.079033c0.24009,1.91269 1.200598,3.56991 1.683468,3.56991c0.934348,0 0.240091,-6.024206 -0.963051,-7.648943zm7.61583,36.078371c-0.480181,0.255468 0.722961,1.912689 2.140179,3.283857c1.443305,1.369527 2.617744,1.911048 2.617744,1.083129c0,-1.91243 -4.034962,-5.482513 -4.757923,-4.366986zm-5.958594,1.912689c-2.137563,1.912862 -0.934348,6.821024 2.163723,7.649115c1.657308,0.541522 4.277741,2.740609 5.93505,4.908248c1.443305,2.199088 2.617744,3.028648 2.617744,2.199088c0,-2.740522 -9.513302,-15.872237 -10.716517,-14.756451zm9.756081,22.693519c-1.417145,-4.399643 -3.074526,-6.566073 -6.175213,-7.937068c-2.377653,-1.083129 -4.757923,-1.657221 -5.478267,-1.369354c-0.722961,0.286225 2.137562,3.82365 6.2013,7.935254c7.61583,7.107508 7.61583,7.107508 5.45218,1.371168zm12.640076,-42.103008c-0.480254,0 -0.963124,1.083301 -0.963124,2.16643c0,1.370995 0.48287,2.199087 0.963124,2.199087c0.694257,0 1.177127,-0.828092 1.177127,-2.199087c0,-1.083129 -0.48287,-2.16643 -1.177127,-2.16643zm-2.16365,22.40548c0,1.91243 4.061122,0.541607 5.718431,-1.91269c2.377726,-4.111517 2.137562,-5.194818 -0.963052,-5.194818c-2.137562,0 -4.755379,3.825464 -4.755379,7.107508zm6.921645,-59.027186c-0.72296,3.537425 -1.203214,6.533157 -0.963051,6.82111c0.722888,1.083301 2.620433,-7.107335 2.620433,-10.39102c0,-1.369527 -0.723034,0.287953 -1.657382,3.56991zm12.373898,55.201807c-1.203214,0 -2.137635,0.543335 -2.137635,1.626205c0,0.828092 0.694257,1.371254 1.414602,1.371254c0.963051,0 1.897472,-0.543162 2.140179,-1.371254c0.480254,-1.08287 -0.242707,-1.626205 -1.417146,-1.626205zm-2.860596,51.377984c1.417218,4.941164 3.554781,9.561632 4.757996,10.677418c1.203214,0.828091 3.580868,4.653384 4.998086,8.478503c1.417218,3.823823 2.860523,6.819641 3.100686,6.819641c1.174439,0 -1.203214,-25.146002 -2.860523,-32.796413c-1.443378,-6.564173 -1.897545,-12.588552 -1.657381,-22.150184c0.214003,-7.107335 0,-13.386924 -0.480182,-13.928446c-0.240163,-0.541607 -1.897472,-0.541607 -3.340777,0c-2.620433,1.083129 -2.860523,1.91269 -2.860523,7.936896c0,4.620554 -0.480327,7.107508 -1.657382,8.190378c-3.340704,2.454383 -3.100614,16.382742 0,26.772207zm-6.895485,-36.619978c-0.480254,-4.111604 -0.960435,-4.653211 -3.580868,-4.653211c-3.100687,0 -3.100687,0.286398 -2.860523,6.022738c0,3.538894 0.482797,7.650411 0.722888,9.561545c0.240163,1.91269 1.177127,3.82512 2.137635,4.111604c1.897399,1.371168 4.034962,-8.190378 3.580868,-15.042676zm-3.580868,27.60004c-2.137635,-3.282216 -3.580868,-6.819642 -3.794944,-7.648943c0,-1.083129 -1.203142,-3.823651 -2.617817,-6.277948c-1.443305,-2.454124 -3.100614,-5.482599 -3.823574,-6.5659c-2.377654,-3.82512 -1.897472,-0.541435 0.72296,7.935427c1.657309,5.737722 4.515289,10.932627 7.855994,15.299354c6.17514,7.393734 6.895558,6.022997 1.657381,-2.74199zm-3.794944,13.417939c2.591729,0 2.377726,-0.286225 -1.203142,-4.652952c-2.377726,-2.740781 -4.035035,-5.736512 -4.035035,-7.107594c0,-1.083042 -3.100686,-4.939609 -6.681481,-8.477035c-3.554854,-3.569823 -6.895631,-7.107249 -7.375812,-8.191846c-0.48287,-1.369527 -0.722961,-1.369527 -0.722961,0.25521c0,1.657479 -1.174511,1.91243 -4.998086,1.083128c-2.617817,-0.541694 -4.755379,-0.541694 -4.755379,-0.253741c0,0.541608 0.960435,3.823824 1.923559,7.107249c1.657381,5.450115 2.377653,6.566074 7.615903,8.732331c3.31469,1.370995 8.552794,4.653125 11.893571,7.107249c3.100686,2.48704 6.895558,4.398001 8.338863,4.398001zm-37.150252,9.275148c0.963052,0 2.38027,-0.541435 3.340705,-1.370736c1.657381,-1.911221 0.242779,-1.911221 -2.857907,0c-1.417218,0.829301 -1.657309,1.084511 -0.482798,1.370736zm-2.617816,-6.821024c2.377726,-1.114144 9.996172,-2.198914 16.917817,-2.198914c13.068155,-0.25521 15.688515,-1.08287 10.450266,-2.740522c-1.657236,-0.541435 -5.45218,-1.912689 -8.552794,-3.282216c-5.47834,-2.454124 -16.677727,-1.626205 -17.852238,1.114576c-0.242707,0.542904 -1.443305,0.829302 -2.62036,0.542904c-2.377726,-0.829388 -4.757995,1.369699 -5.47834,5.736513c-0.963051,3.537166 0.720345,3.825119 7.135649,0.827659zm-19.029293,6.279589c0.480254,2.199088 2.860524,2.454124 4.757996,0.541435c1.174438,-1.083042 1.174438,-1.624477 0,-3.281957c-0.963052,-1.626464 -1.657309,-1.626464 -3.100614,-0.255209c-0.963052,0.796903 -1.657382,2.16643 -1.657382,2.995731zm-7.615902,19.123264c0.93442,0 1.414674,0.828092 0.93442,2.454297c-0.214076,1.115786 -0.93442,2.198915 -1.417218,2.198915c-0.720344,0 -1.174511,-1.083129 -1.174511,-2.198915c0,-1.338338 0.694257,-2.454297 1.657309,-2.454297z" fill-opacity="null" stroke-opacity="null" stroke-width="1.5" stroke="#000" fill="#fff"/>
  <path stroke="#000" id="svg_8" d="m171.948275,307.004599l-5.980717,0c0,0 -4.651679,-0.259657 -5.980717,3.115812c-2.367388,2.434188 -6.790603,1.363147 -7.974275,2.336842c-1.308297,0 -4.319419,0.454382 -3.987159,1.557872c0.33226,1.103524 1.329082,1.298249 0.996779,1.557906c-0.33226,0.259657 -1.245985,5.582483 7.475907,5.452655c0,0 0.913725,1.557872 4.983938,0c0,0 0.913681,-0.584211 2.491925,0.389451c1.578288,0.973696 4.734733,1.687735 5.48235,1.557906c0.747573,-0.129828 5.482306,6.166659 5.482306,15.189474c0,9.022849 6.396075,15.254406 8.472686,15.578994c0,0 5.046207,12.560527 5.2331,23.757907c0,0 1.245985,4.738616 -4.236321,4.673684c-2.959202,1.923038 -4.267499,3.237512 -2.491969,3.115812c0,0 0.685305,0.876282 1.993558,0.778936c0.566531,-0.15811 -4.578974,2.87238 -2.491969,2.726327c0,0 0.913769,2.077185 4.485527,0.778936c0,0 5.48235,0.389485 5.980717,-2.336842c0.498411,-2.726327 0.747617,-7.156579 2.99038,-6.621076c0,0 0.332216,-21.745619 2.990337,-23.368422c0,0 13.203882,0.851757 28.408396,-6.231591c4.319419,-2.012288 8.721848,-4.998272 9.469422,1.947357c0.747617,6.945629 14.121144,12.722838 15.948594,16.74738c1.82745,4.024577 2.824229,2.596499 2.491925,12.073696c0,0 -3.156445,-0.584211 -5.482306,1.557906c-1.49519,1.168421 0.498411,1.168421 0.498411,1.168421c0,0 -1.162931,0.908764 2.491969,0.77897c0,0 0.498368,0.438124 2.990337,0c0,0 4.153267,0.194725 3.488748,-2.336842c0,0 0.249206,-14.410572 1.49519,-13.631602c1.245985,0.778936 7.642015,5.322792 7.475864,15.189474c0,0 -2.824229,0.324554 -2.990337,2.726327c0,0 -1.412093,1.233318 0.498368,1.557906c0,0 2.678862,0.535504 3.488748,0c0,0 3.405738,0.908764 3.488748,-2.336876c0.083054,-3.245607 -2.741131,-14.507884 -1.495147,-17.136831c0,0 -10.71545,-4.868444 -12.459846,-19.863193c0,0 4.983938,12.722838 20.932532,10.51579c0,0 1.162931,-0.389451 -0.498411,-0.778936c-1.661342,-0.389485 -14.785663,0.973696 -17.942152,-11.684211c-2.305076,-9.055298 -0.56068,-10.028959 -7.974275,-13.631602c-9.967833,-7.448685 -34.804427,0.064897 -42.363345,-2.336842c-6.977496,-2.726327 -7.226702,-2.775 -14.951771,-4.673684c-7.912006,-3.261865 -6.562139,-7.010527 -12.459802,-12.073696c-4.516705,-4.746711 -4.568581,-4.219302 -4.983938,-4.673684c-0.415357,-0.454416 -0.083054,-2.596499 -5.482306,-3.115812z" fill-opacity="null" stroke-opacity="null" stroke-width="1.5" fill="#fff"/>
  <path id="svg_9" d="m298.871798,335.002988l-2.465334,0c0,0 -1.917486,-0.168933 -2.465334,2.027155c-0.97587,1.583689 -2.79918,0.886866 -3.287106,1.520355c-0.539298,0 -1.780524,0.295622 -1.643562,1.013555c0.136962,0.717955 0.547866,0.844644 0.410886,1.013578c-0.136962,0.168933 -0.513612,3.631977 3.081672,3.54751c0,0 0.37665,1.013555 2.054448,0c0,0 0.376632,-0.380089 1.027206,0.253378c0.650592,0.633489 1.951722,1.098044 2.2599,1.013578c0.30816,-0.084467 2.259882,4.012043 2.259882,9.882309c0,5.870288 2.63655,9.924553 3.492557,10.135731c0,0 2.080116,8.171909 2.157156,15.456952c0,0 0.513612,3.082955 -1.74627,3.04071c-1.219824,1.251133 -1.759122,2.106333 -1.027224,2.027155c0,0 0.282492,0.570111 0.821772,0.506778c0.233532,-0.102867 -1.887516,1.868777 -1.027224,1.773755c0,0 0.376668,1.351422 1.848996,0.506778c0,0 2.2599,0.2534 2.465334,-1.520355c0.205452,-1.773755 0.308178,-4.656088 1.232676,-4.307688c0,0 0.136944,-14.147752 1.232658,-15.203552c0,0 5.442821,0.554155 11.71033,-4.054288c1.780524,-1.3092 3.595265,-3.251888 3.903425,1.266955c0.308178,4.518843 5.820929,8.277509 6.574229,10.895886c0.7533,2.618399 1.164186,1.689288 1.027206,7.855176c0,0 -1.30113,-0.380089 -2.259882,1.013578c-0.616338,0.760178 0.205452,0.760178 0.205452,0.760178c0,0 -0.479376,0.591244 1.027224,0.5068c0,0 0.205434,0.285044 1.232658,0c0,0 1.712034,0.126689 1.43811,-1.520355c0,0 0.102726,-9.375553 0.616338,-8.868753c0.513612,0.506778 3.150144,3.463021 3.081654,9.882309c0,0 -1.164186,0.211156 -1.232658,1.773755c0,0 -0.582084,0.8024 0.205434,1.013578c0,0 1.104264,0.3484 1.43811,0c0,0 1.403892,0.591244 1.43811,-1.520377c0.034236,-2.1116 -1.129932,-9.438864 -0.61632,-11.149264c0,0 -4.417055,-3.167421 -5.136119,-12.923041c0,0 2.054448,8.277509 8.628677,6.841598c0,0 0.479376,-0.253378 -0.205452,-0.506778c-0.684828,-0.2534 -6.094853,0.633489 -7.396001,-7.601776c-0.950184,-5.891399 -0.23112,-6.524865 -3.287106,-8.868753c-4.108877,-4.846132 -14.346862,0.042222 -17.462751,-1.520355c-2.87622,-1.773755 -2.978946,-1.805422 -6.163325,-3.04071c-3.261438,-2.122177 -2.705004,-4.561066 -5.136101,-7.855176c-1.861848,-3.088221 -1.883232,-2.745088 -2.054448,-3.04071c-0.171216,-0.295644 -0.034236,-1.689288 -2.259882,-2.027155z" fill-opacity="null" stroke-opacity="null" stroke-width="1.5" stroke="#000" fill="#fff"/>
  <path id="svg_11" d="m86.157129,315.288189c0.842467,-3.85542 1.995574,-7.12056 3.089368,-8.747856c1.171825,-1.743388 0.651926,-2.499614 -0.556906,-0.810059c-0.508571,0.710811 -0.653876,0.194684 -0.653876,-2.32258c0,-6.005993 2.227554,-9.722326 7.587167,-12.658013c4.535028,-2.484038 7.878502,-5.2775 9.264778,-7.740704l1.129643,-2.007217l0,3.49236c0,4.318356 -0.95857,10.842345 -2.019621,13.745456c-1.125585,3.079693 -4.983666,8.764352 -6.876889,10.132703c-1.69616,1.225931 -5.318614,1.586838 -7.254645,0.722788c-0.964804,-0.430586 -1.271003,-0.101597 -1.770914,1.902729c-0.332427,1.332823 -0.604415,3.228971 -0.604415,4.213647c0,1.11788 -0.320785,1.790316 -0.854065,1.790316c-0.633376,0 -0.757309,-0.442776 -0.479625,-1.713569l-0.000001,0z" fill-opacity="null" stroke-opacity="null" stroke-width="1.5" stroke="#000" fill="#fff"/>
  <path stroke="#000" id="svg_12" d="m42.365618,347.292714c0.910095,-4.329943 2.155766,-7.996955 3.337363,-9.824538c1.265891,-1.957963 0.704259,-2.807265 -0.601611,-0.90976c-0.549396,0.798297 -0.706365,0.218646 -0.706365,-2.608442c0,-6.745207 2.406368,-10.918945 8.196216,-14.215955c4.899071,-2.789773 8.510937,-5.927052 10.008494,-8.693426l1.220324,-2.254265l0,3.922198c0,4.849857 -1.035518,12.176816 -2.181743,15.43724c-1.21594,3.45874 -5.383723,9.843064 -7.428921,11.379832c-1.832317,1.376818 -5.745558,1.782145 -7.837001,0.811748c-1.042252,-0.483583 -1.373031,-0.114101 -1.913071,2.136916c-0.359112,1.496866 -0.652933,3.626391 -0.652933,4.73226c0,1.255468 -0.346536,2.010667 -0.922624,2.010667c-0.684219,0 -0.818101,-0.497272 -0.518126,-1.924474l-0.000001,0z" fill-opacity="null" stroke-opacity="null" stroke-width="1.5" fill="#fff"/>
  <path stroke="#000" id="svg_13" d="m74.178102,369.621388c0.968838,-3.105755 2.29491,-5.736007 3.552773,-7.046884c1.347598,-1.404396 0.749715,-2.013578 -0.640442,-0.652547c-0.584857,0.572598 -0.751958,0.156829 -0.751958,-1.870968c0,-4.838161 2.561687,-7.831874 8.725242,-10.196733c5.215282,-2.001031 9.060277,-4.25132 10.654494,-6.235567l1.29909,-1.616925l0,2.81329c0,3.478676 -1.102356,8.734112 -2.322564,11.072728c-1.294423,2.480864 -5.731216,7.060173 -7.908422,8.162456c-1.950584,0.987556 -6.116405,1.278286 -8.342842,0.582246c-1.109525,-0.346861 -1.461653,-0.081842 -2.036551,1.532754c-0.382291,1.073663 -0.695077,2.601115 -0.695077,3.394326c0,0.900515 -0.368903,1.442199 -0.982175,1.442199c-0.728382,0 -0.870906,-0.35668 -0.551568,-1.380375l-0.000001,0z" fill-opacity="null" stroke-opacity="null" stroke-width="1.5" fill="#fff"/>
  <path stroke="#000" id="svg_14" d="m394.000009,92.409376l-38.13082,9.545382l0,-19.080598l38.13082,9.535216zm-27.686197,-47.020408l-17.37159,25.728819l-19.170145,-13.499752l36.541735,-12.229067zm-66.813807,-19.471969l13.557786,26.836856l-27.122794,0l13.565009,-26.836856zm-66.82103,19.471969l36.556181,12.229067l-19.177368,13.499752l-17.378813,-25.728819zm-27.678974,47.020408l38.138043,-9.535216l0,19.080598l-38.138043,-9.545382zm27.678974,47.020408l17.378813,-25.718653l19.177368,13.494669l-36.556181,12.223984l0,0zm66.82103,19.487217l-13.565009,-26.841938l27.122794,0l-13.557786,26.841938zm66.813807,-19.487217l-36.548958,-12.218902l19.170145,-13.494669l17.378813,25.713571zm-114.060198,-47.020408l0,0c0,-18.358849 21.156502,-33.246188 47.253614,-33.246188c26.089889,0 47.253614,14.887339 47.253614,33.246188c0,18.363932 -21.163725,33.251271 -47.253614,33.251271c-26.104335,0 -47.253614,-14.887339 -47.253614,-33.251271l0,0z" fill-opacity="null" stroke-opacity="null" stroke-width="1.5" fill="#fff"/>
  <path stroke="#000" id="svg_15" d="m476.158435,291.827455l10.818719,0l0,-16.895466l11.097952,0l0,16.895466l10.81872,0l0,17.331541l-10.81872,0l0,16.895465l-11.097952,0l0,-16.895465l-10.818719,0l0,-17.331541z" fill-opacity="null" stroke-opacity="null" stroke-width="1.5" fill="#fff"/>
  <path id="svg_16" d="m413.00035,181.983586l42.499949,-29.411307l42.500049,29.411307l-16.233501,47.588694l-52.532949,0l-16.233549,-47.588694z" fill-opacity="null" stroke-opacity="null" stroke-width="1.5" stroke="#000" fill="#fff"/>
  <path stroke="#000" id="svg_21" d="m435.998871,325.39504l14,0l0,-14.000025l-14,0l0,14.000025z" fill-opacity="null" stroke-opacity="null" stroke-width="1.5" fill="#fff"/>
  <path stroke="#000" id="svg_24" d="m424.000002,181.623744l18.74507,-19.623741l26.509864,0l18.745071,19.623741l0,27.752513l-18.745071,19.623744l-26.509864,0l-18.74507,-19.623744l0,-27.752513z" fill-opacity="null" stroke-opacity="null" stroke-width="1.5" fill="#fff"/>
 </g>
</svg>